<?xml version="1.0" encoding="UTF-8"?>
<svg xmlns="http://www.w3.org/2000/svg" viewBox="0 0 192 192"><path d="M60 120a4 4 0 0 1-3.795-2.735L49.117 96H20v-8h32a4 4 0 0 1 3.795 2.735L60 103.35l12.205-36.616a4 4 0 0 1 7.59 0L88 91.35l4.205-12.616a4 4 0 0 1 7.59 0L102.883 88H120v8h-20a4 4 0 0 1-3.795-2.735L96 92.65l-4.205 12.616a4 4 0 0 1-7.59 0L76 80.65l-12.205 36.616A4 4 0 0 1 60 120zm69.778-96c-13 0-25.06 5.303-33.778 14.703C87.281 29.303 75.221 24 62.222 24 36.735 24 16 44.794 16 70.353c0 3.236.18 6.452.52 9.647h8.044A83.797 83.797 0 0 1 24 70.353C24 49.205 41.146 32 62.222 32c12.132 0 23.276 5.59 30.576 15.338L96 51.613l3.202-4.275C106.502 37.59 117.646 32 129.778 32 150.854 32 168 49.205 168 70.353c0 26.849-12.279 51.443-36.496 73.101-15.175 13.572-30.56 21.682-35.502 24.114-8.567-4.23-48.563-25.643-64.959-63.568h-8.642c6.382 16.37 17.463 31.776 32.937 45.574 19.244 17.158 38.234 25.723 39.033 26.08l1.629.725 1.629-.726c.799-.356 19.79-8.921 39.033-26.08C162.397 126.628 176 99.234 176 70.354 176 44.794 155.265 24 129.778 24z" style="fill: #ffffff;"/></svg>
