<?xml version="1.0" encoding="UTF-8"?>
<svg xmlns="http://www.w3.org/2000/svg" viewBox="0 0 192 192"><path d="M24.764 81.74l-7.928 1.074A93 93 0 0 1 16 70.353C16 44.794 36.735 24 62.222 24c13 0 25.06 5.303 33.778 14.703C104.719 29.303 116.779 24 129.778 24 155.265 24 176 44.794 176 70.353c0 14.008-3.21 27.665-9.443 40.636a39.964 39.964 0 0 0-6.92-3.804C165.194 95.47 168 83.17 168 70.353 168 49.205 150.854 32 129.778 32c-12.132 0-23.276 5.59-30.576 15.338L96 51.613l-3.202-4.275C85.498 37.59 74.354 32 62.222 32 41.146 32 24 49.205 24 70.353c0 3.819.257 7.65.764 11.386zm83.04 79.263c-5.366 3.29-9.61 5.487-11.801 6.565-8.837-4.366-51.112-26.993-66.39-66.93l-7.471 2.858c18.217 47.624 70.032 71.178 72.23 72.157l1.628.726 1.629-.726c.43-.191 6.132-2.764 14.303-7.77a40.052 40.052 0 0 1-4.128-6.88zm-44.01-43.738L76 80.65l8.205 24.616a4 4 0 0 0 7.59 0L96 92.65l.205.616A4 4 0 0 0 100 96h20v-8h-17.117l-3.088-9.265a4 4 0 0 0-7.59 0L88 91.35l-8.205-24.616a4 4 0 0 0-7.59 0L60 103.35l-4.205-12.616A4 4 0 0 0 52 88H20v8h29.117l7.088 21.265a4 4 0 0 0 7.59 0zM144.057 152c-2.249 0-4.055 1.791-4.055 4 0 2.248 1.77 4 4.018 4a3.982 3.982 0 0 0 3.982-4c0-2.17-1.807-4-3.945-4zM141.272 148h5.458L148 136.043V128h-8v7.956L141.27 148zM176 144c0-17.645-14.355-32-32-32s-32 14.355-32 32 14.355 32 32 32 32-14.355 32-32zm-8 0c0 13.234-10.766 24-24 24s-24-10.766-24-24 10.766-24 24-24 24 10.766 24 24z" style="fill: #ffffff;"/></svg>
